<svg width="100" height="100" viewBox="0 0 100 100" fill="none" xmlns="http://www.w3.org/2000/svg">
<path d="M12.5 0C5.575 0 0 5.575 0 12.5V87.5C0 94.425 5.575 100 12.5 100H87.5C94.425 100 100 94.425 100 87.5V12.5C100 5.575 94.425 0 87.5 0H12.5ZM41.1792 26.0417C43.8042 26.0417 45.3667 27.2917 45.8667 29.7917L51.9625 64.3875C53.8986 61.8236 55.4903 59.6667 56.7375 57.9167C58.8105 54.9331 60.6002 51.7624 62.0833 48.4458C63.7722 44.8819 64.6167 41.6944 64.6167 38.8833C64.6167 37.1972 64.1472 35.8542 63.2083 34.8542C62.3333 33.7931 60.6764 32.45 58.2375 30.825C60.7375 27.6361 63.8625 26.0417 67.6125 26.0417C69.6125 26.0417 71.2694 26.6361 72.5833 27.825C73.9583 29.0111 74.6444 30.7611 74.6417 33.075C74.6417 36.95 73.0167 41.7944 69.7667 47.6083C66.5806 53.3583 60.4264 62.0139 51.3042 73.575L42.025 74.225L34.8958 34.1083H25.5208V30.1667C28.0208 29.3528 30.9583 28.4778 34.3333 27.5417C37.7083 26.5417 39.9903 26.0417 41.1792 26.0417Z" fill="black"/>
</svg>
