<svg width="100" height="100" viewBox="0 0 100 100" fill="none" xmlns="http://www.w3.org/2000/svg">
<path d="M50 0C36.7392 0 24.0215 5.26784 14.6447 14.6447C5.26784 24.0215 0 36.7392 0 50C0 63.2608 5.26784 75.9785 14.6447 85.3553C24.0215 94.7322 36.7392 100 50 100C63.2608 100 75.9785 94.7322 85.3553 85.3553C94.7322 75.9785 100 63.2608 100 50C100 36.7392 94.7322 24.0215 85.3553 14.6447C75.9785 5.26784 63.2608 0 50 0ZM63.1792 90.7625H62.7917C62.5003 90.7823 62.208 90.7405 61.9338 90.64C61.6596 90.5395 61.4096 90.3825 61.2 90.1792C61.002 89.9744 60.848 89.7312 60.7477 89.4646C60.6474 89.198 60.6028 88.9137 60.6167 88.6292V82.7708C60.6444 80.8236 60.6583 78.8569 60.6583 76.8708C60.6511 75.4206 60.4393 73.9786 60.0292 72.5875C59.6407 71.1812 58.8569 69.9159 57.7708 68.9417C60.6751 68.662 63.53 68.0022 66.2625 66.9792C68.5676 66.1027 70.6527 64.7316 72.3708 62.9625C74.0667 61.1833 75.3292 59.0333 76.0583 56.6875C76.9432 53.8142 77.3652 50.8184 77.3083 47.8125C77.3282 45.7134 76.9609 43.6285 76.225 41.6625C75.48 39.6804 74.3547 37.863 72.9125 36.3125C73.2243 35.5309 73.4506 34.7178 73.5875 33.8875C73.7264 33.0542 73.7958 32.2153 73.7958 31.3708C73.7958 30.2819 73.6708 29.2083 73.4208 28.15C73.1987 27.0675 72.8908 26.0045 72.5 24.9708C72.3525 24.9141 72.1955 24.8858 72.0375 24.8875H71.5792C70.6181 24.8986 69.6819 25.0528 68.7708 25.35C67.7687 25.6373 66.7896 25.9994 65.8417 26.4333C64.8989 26.8605 63.9795 27.3376 63.0875 27.8625C62.1931 28.3931 61.3972 28.8958 60.7 29.3708C53.6899 27.4218 46.2809 27.4218 39.2708 29.3708C38.4887 28.8489 37.694 28.346 36.8875 27.8625C35.985 27.3293 35.0498 26.8533 34.0875 26.4375C33.1404 25.9937 32.1578 25.6299 31.15 25.35C30.2596 25.0556 29.3294 24.8997 28.3917 24.8875H27.9333C27.7767 24.8863 27.6212 24.9146 27.475 24.9708C27.0855 26.0081 26.7653 27.0702 26.5167 28.15C26.2944 29.2111 26.1819 30.2847 26.1792 31.3708C26.1792 32.2153 26.25 33.0542 26.3917 33.8875C26.5333 34.7208 26.7556 35.5292 27.0583 36.3125C25.6202 37.8653 24.4992 39.6841 23.7583 41.6667C23.0182 43.6319 22.6467 45.7167 22.6625 47.8167C22.6062 50.8065 23.0167 53.7867 23.8792 56.65C24.6333 58.9958 25.8917 61.15 27.5625 62.9667C29.2917 64.725 31.375 66.0917 33.6708 66.9833C36.3917 68.025 39.2417 68.6917 42.1417 68.9667C41.3292 69.6981 40.6864 70.5982 40.2583 71.6042C39.8485 72.5974 39.5684 73.6393 39.425 74.7042C37.8964 75.4367 36.2242 75.8209 34.5292 75.8292C32.9554 75.8887 31.4029 75.4514 30.0917 74.5792C28.8349 73.6483 27.7707 72.4823 26.9583 71.1458C26.596 70.5836 26.1892 70.0513 25.7417 69.5542C25.2709 69.0303 24.7519 68.5518 24.1917 68.125C23.6405 67.7105 23.0348 67.374 22.3917 67.125C21.7598 66.848 21.0774 66.7047 20.3875 66.7042C20.2208 66.7097 20.0542 66.7236 19.8875 66.7458C19.66 66.7472 19.4335 66.7752 19.2125 66.8292C19.0184 66.8792 18.8349 66.9639 18.6708 67.0792C18.5972 67.1216 18.5356 67.1822 18.4918 67.2551C18.4481 67.328 18.4236 67.4109 18.4208 67.4958C18.4383 67.6964 18.4996 67.8906 18.6004 68.0648C18.7012 68.2391 18.8391 68.389 19.0042 68.5042C19.3931 68.8125 19.7153 69.05 19.9708 69.2167L20.0958 69.3042C20.6514 69.7347 21.1819 70.1972 21.6875 70.6917C22.1569 71.1028 22.5736 71.5611 22.9375 72.0667C23.3153 72.5611 23.6361 73.0903 23.9 73.6542C24.2056 74.2097 24.5264 74.8528 24.8625 75.5833C25.6458 77.5583 27.0375 79.2292 28.8375 80.3542C30.725 81.3667 32.8417 81.8708 34.9875 81.8167C35.7153 81.8167 36.4403 81.775 37.1625 81.6917C37.8792 81.5778 38.5944 81.4514 39.3083 81.3125V88.575C39.3213 88.8678 39.2723 89.1601 39.1646 89.4327C39.0569 89.7053 38.8929 89.9521 38.6833 90.157C38.4737 90.3619 38.2232 90.5202 37.9482 90.6217C37.6733 90.7232 37.3799 90.7655 37.0875 90.7458H36.8292C27.1127 87.6069 18.8361 81.102 13.4899 72.4025C8.14362 63.7031 6.07902 53.3806 7.66784 43.2941C9.25665 33.2075 14.3945 24.0196 22.1561 17.3848C29.9178 10.7501 39.7932 7.10446 50.0042 7.10446C60.2151 7.10446 70.0905 10.7501 77.8522 17.3848C85.6139 24.0196 90.7517 33.2075 92.3405 43.2941C93.9293 53.3806 91.8647 63.7031 86.5185 72.4025C81.1722 81.102 72.8957 87.6069 63.1792 90.7458V90.7625Z" fill="black"/>
</svg>
