<svg width="100" height="100" viewBox="0 0 100 100" fill="none" xmlns="http://www.w3.org/2000/svg">
<path d="M37.5 54.1666H62.5M37.5 70.8333H50M16.6666 16.6666V83.3333C16.6666 85.5434 17.5446 87.6631 19.1074 89.2259C20.6702 90.7887 22.7898 91.6666 25 91.6666H75C77.2101 91.6666 79.3297 90.7887 80.8925 89.2259C82.4553 87.6631 83.3333 85.5434 83.3333 83.3333V34.7583C83.3332 33.6481 83.1112 32.5492 82.6805 31.526C82.2497 30.5028 81.6189 29.576 80.825 28.8L62.325 10.7083C60.7681 9.18605 58.6773 8.33358 56.5 8.33331H25C22.7898 8.33331 20.6702 9.21129 19.1074 10.7741C17.5446 12.3369 16.6666 14.4565 16.6666 16.6666Z" stroke="black" stroke-width="2" stroke-linecap="round" stroke-linejoin="round"/>
<path d="M58.3333 8.33331V25C58.3333 27.2101 59.2112 29.3297 60.774 30.8925C62.3368 32.4553 64.4564 33.3333 66.6666 33.3333H83.3333" stroke="black" stroke-width="2" stroke-linejoin="round"/>
</svg>
